<svg class="icon" viewBox="0 0 1024 1024" xmlns="http://www.w3.org/2000/svg" width="200" height="200"><path d="M873.067 443.733H512v151.467h226.133c-20.267 104.533-110.933 151.467-226.133 151.467-137.6 0-249.6-112-249.6-249.6s112-249.6 249.6-249.6c62.933 0 119.467 23.467 162.133 61.867l113.067-113.067C706.133 209.067 616.533 170.667 512 170.667c-187.733 0-339.2 151.467-339.2 339.2S324.267 849.067 512 849.067c169.6 0 324.267-123.733 324.267-339.2 0-22.4-2.133-44.8-6.4-66.133z" fill="#4285F4"/><path d="M512 849.067c94.933 0 185.6-32 252.8-87.467l-116.267-96c-32 22.4-73.6 35.2-136.533 35.2-115.2 0-212.267-76.8-246.4-183.467l-120.533 93.867C232.533 746.667 360.533 849.067 512 849.067z" fill="#34A853"/><path d="M265.6 517.333c-9.6-28.8-15.467-59.733-15.467-92.8s5.333-64 15.467-92.8L145.067 237.867C108.8 310.4 88.533 392.533 88.533 424.533S108.8 538.667 145.067 611.2l120.533-93.867z" fill="#FBBC05"/><path d="M512 233.6c64 0 121.6 22.4 166.4 64l106.667-106.667C694.4 165.333 610.133 128 512 128c-151.467 0-279.467 102.4-324.267 243.2l120.533 93.867C342.4 355.2 396.8 233.6 512 233.6z" fill="#EA4335"/></svg>